<svg xmlns="http://www.w3.org/2000/svg" style="max-height: 500px" data-id="188c7fa26dc04451a35fa287f80b3c34" class="ng-element" viewBox="0 0 198.625 50.99206349206349" preserveAspectRatio="xMidYMid meet" version="1.1" width="200" height="50.99206349206349"><defs>
    <style>
      .cls-1_1525346549174 {
        fill: #3C3D3F;
      }
    </style>
  </defs><path d="M38.747,13.66H34.105V36.34h4.642Zm-11.426,0H22.679V36.34h4.642Zm-11.426,0H11.253V36.34h4.642V13.66ZM8.207,4.642H41.793V0H8.207ZM4.642,41.793V8.207H0V41.793ZM45.358,8.207V41.793H50V8.207ZM41.793,45.358H8.207V50H41.793Zm38.12-9.019h4.351V13.664H78.706L72.29,30.782,65.97,13.664H60.317V36.34h4.256V20.968L70.385,36.34h3.747L79.912,20.9V36.34Zm8.8,0h16.7V32.306H93.441v-5.59H104.4V22.652H93.441V17.7H105.16V13.664H88.709Zm34.775,0h5.208l-4.859-9.559a6.471,6.471,0,0,0,2.795-2.477,7.365,7.365,0,0,0,.857-3.716A7.949,7.949,0,0,0,127.058,18a5.317,5.317,0,0,0-1.461-2.207,7.634,7.634,0,0,0-2.779-1.54,13.819,13.819,0,0,0-4.351-.587h-8.8V36.34h4.668V27.828h4.923ZM114.338,23.89V17.57h4a8.259,8.259,0,0,1,2.1.222,3.568,3.568,0,0,1,1.334.635,2.238,2.238,0,0,1,.714.984,3.621,3.621,0,0,1,.206,1.238A4.376,4.376,0,0,1,122.5,22a2.3,2.3,0,0,1-.667,1.016,3.126,3.126,0,0,1-1.254.651,7.235,7.235,0,0,1-1.953.222h-4.287ZM148.161,36.34h5.05l-8.988-22.676h-4.8L130.439,36.34h4.891l1.906-5.208h8.988Zm-6.447-17.531,3.144,8.416h-6.225Zm30.9,17.531h5.05l-8.988-22.676h-4.8L154.893,36.34h4.891l1.906-5.208h8.988Zm-6.447-17.531,3.144,8.416h-6.225Zm32.076-.318a7.86,7.86,0,0,0-.9-1.89,6.31,6.31,0,0,0-1.731-1.747,9.572,9.572,0,0,0-2.763-1.27,15.993,15.993,0,0,0-7.813-.016,8.878,8.878,0,0,0-2.938,1.381,6.334,6.334,0,0,0-1.89,2.191,6.15,6.15,0,0,0-.667,2.874,5.326,5.326,0,0,0,1.921,4.462,12.613,12.613,0,0,0,5.7,2.144l3.176.572a4.965,4.965,0,0,1,2.636,1.1,2.366,2.366,0,0,1,.73,1.7,2.591,2.591,0,0,1-1.032,2.144,5.667,5.667,0,0,1-3.446.81,8.978,8.978,0,0,1-3.732-.794,8.154,8.154,0,0,1-3.192-2.763L179,32.5a10.535,10.535,0,0,0,4.081,3.3,14.275,14.275,0,0,0,5.955,1.111,13.905,13.905,0,0,0,4.208-.572,8.682,8.682,0,0,0,2.985-1.572,6.52,6.52,0,0,0,1.794-2.35,7.119,7.119,0,0,0,.6-2.938,5.522,5.522,0,0,0-1.747-4.192,10.918,10.918,0,0,0-5.59-2.35L187.8,22.3a6.12,6.12,0,0,1-2.715-.969,2.314,2.314,0,0,1-.746-1.89,2,2,0,0,1,1.016-1.763,4.535,4.535,0,0,1,1.4-.524,10.014,10.014,0,0,1,2.128-.19,6.108,6.108,0,0,1,3.35.794,5.583,5.583,0,0,1,1.985,2.509Z" class="cls-1_1525346549174" id="XMLID_1__1525346549174"/></svg>