<svg xml:space="preserve" style="max-height: 500px" viewBox="16.951999999999998 239.936 625.92 172.12800000000001" y="0px" x="0px" xmlns:xlink="http://www.w3.org/1999/xlink" xmlns="http://www.w3.org/2000/svg" id="layer" version="1.1" width="625.92" height="172.12800000000001">
<g>
	<path d="M624.6,254.6l0.3-0.6h-52.6c-15.5,0-28.7,3.2-39.6,9.5c-10.9,6.4-18.7,15.2-23.5,26.7c-3,7.3-3.9,13.9-2.6,19.9&#10;&#9;&#9;c1.5,6.3,5.4,10.7,11.6,13.5c5.7,2.5,15.2,3.7,28.6,3.7h47.5l4.7-11.6h-26.7c-12.9,0-21.5-1.7-25.8-5c-4.7-3.6-4.2-11.9-0.5-20.7&#10;&#9;&#9;c6.4-15.2,19.7-24.7,38.2-24.7h20.7l-4.8,11.4h15.8l9.2-22H624.6z M440.4,297.9l32-31.1l6.6,31.1H440.4z M168.3,298l31.2-29.8&#10;&#9;&#9;l5.6,29.8H168.3z M469.7,253.9L469.7,253.9l-19.5,0.1l-75,70.2l29.3-70.1h-32.1l-38.8,30.4l-20,16.4h-0.9l9.4-23.9L310.6,254h-32.3&#10;&#9;&#9;L249,324.2L232,254h-35.4l-78.1,73.2h19.5l20-19.1h49.2l3.9,19.1h52.3l18.9-45.3c1-2.3,1.9-4.9,2.8-7.8c0.1,2.4,0.7,4.9,1.9,7.5&#10;&#9;&#9;l16.6,37.8h2.8l47.6-37.6c1.8-1.4,4.5-4,8.1-7.7c-1.8,3.4-3.1,6-3.9,7.8l-18.9,45.3h34.5l0,0h36.4l19.7-19.2h51.1l4.1,19.2h18&#10;&#9;&#9;l-17.5-73.3H469.7z M127.2,310c6.3-6,10.9-12.6,14-19.9c4.8-11.4,4.4-20.3-1.2-26.7c-5.6-6.3-16.2-9.5-31.7-9.5H55.8L51,265.4h36.2&#10;&#9;&#9;c18.5,0,23.8,9.2,17.4,24.4c-3.7,8.8-6.9,16.9-14.6,20.5c-7,3.3-14.3,4.3-27.2,4.3l-16.7,0L58.6,285H42.8l-17.7,42.2h47.6&#10;&#9;&#9;c13.4,0,23.9-1.2,31.7-3.7C112.9,320.7,120.5,316.3,127.2,310" fill="#3C3D3F"/>
	<path fill="#3C3D3F" d="M483.5,400.3v-13.2l10.4-17.7h-4.5l-4.4,8.5c-1.2,2.3-2.2,4.4-3.1,6.4h-0.1c-1-2.2-1.9-4-3.1-6.4l-4.4-8.5h-4.5l9.8,17.8&#10;&#9;&#9;v13.1H483.5z M451.5,372.6c0.6-0.2,2-0.4,3.9-0.4c4.2,0,7.1,1.8,7.1,5.8c0,3.5-2.7,5.9-7,5.9h-4.1V372.6z M447.5,400.3h4v-13.4h3.8&#10;&#9;&#9;c3.6,0.1,5.3,1.7,6.2,6c0.9,3.8,1.6,6.5,2.1,7.4h4.1c-0.6-1.2-1.4-4.2-2.4-8.5c-0.7-3.2-2.2-5.4-4.5-6.2v-0.1&#10;&#9;&#9;c3.3-1.1,5.8-3.8,5.8-7.9c0-2.4-0.9-4.5-2.4-5.9c-1.9-1.7-4.7-2.5-8.9-2.5c-2.7,0-5.6,0.2-7.7,0.6V400.3z M416.9,369.4v18.2&#10;&#9;&#9;c0,9.6,4.8,13.2,11.1,13.2c6.7,0,11.7-3.9,11.7-13.4v-18h-4v18.3c0,6.8-2.9,9.9-7.5,9.9c-4.1,0-7.2-2.9-7.2-9.9v-18.3H416.9z&#10;&#9;&#9; M411.4,400.3l-9.6-15.9l9.4-15h-4.6l-4.2,7.2c-1.1,2-1.9,3.4-2.8,5.2h-0.1c-0.8-1.6-1.7-3.2-2.8-5.2l-4.1-7.2h-4.6l9.1,15.3&#10;&#9;&#9;l-9.4,15.6h4.6l3.7-6.8c1.6-2.7,2.5-4.4,3.3-6.1h0.1c1,1.8,2,3.5,3.6,6.1l3.9,6.8H411.4z M359.2,369.4v18.2&#10;&#9;&#9;c0,9.6,4.8,13.2,11.1,13.2c6.7,0,11.7-3.9,11.7-13.4v-18h-4v18.3c0,6.8-2.9,9.9-7.5,9.9c-4.1,0-7.2-2.9-7.2-9.9v-18.3H359.2z&#10;&#9;&#9; M338.4,400.3h17.2V397h-13.2v-27.5h-4V400.3z M321.2,382.5h-12v-9.8h12.7v-3.3h-16.7v30.9h17.4V397h-13.4v-11.1h12V382.5z&#10;&#9;&#9; M274.4,369.4v30.9h4v-14.5h14.9v14.5h4v-30.9h-4v12.9h-14.9v-12.9H274.4z M256.6,400.3h4v-27.5h9.4v-3.4h-22.9v3.4h9.4V400.3z&#10;&#9;&#9; M235.4,382.5h-12v-9.8h12.7v-3.3h-16.7v30.9h17.4V397h-13.4v-11.1h12V382.5z M204.1,400.3l11-30.9h-4.3l-5.2,15.3&#10;&#9;&#9;c-1.4,4-2.7,7.9-3.5,11.5H202c-0.8-3.6-2-7.4-3.3-11.5l-4.8-15.2h-4.3l10.1,30.9H204.1z M181,400.3h4v-30.9h-4V400.3z M158.5,400.3&#10;&#9;&#9;h17.2V397h-13.2v-27.5h-4V400.3z"/>
</g>
</svg>