<svg xml:space="preserve" style="max-height: 500px" viewBox="216.464 376.856 225.59199999999998 66.50399999999999" y="0px" x="0px" xmlns:xlink="http://www.w3.org/1999/xlink" xmlns="http://www.w3.org/2000/svg" id="layer" version="1.1" width="225.59199999999998" height="66.50399999999999">
<g>

	<style>
      .st0 {
fill: #3C3D3F;
      }
    </style>
	
	
	
	
	<path d="M250.5,408.8c-0.6-1-1.5-1.9-2.7-2.7c-1.2-0.8-3.2-1.8-6-3c-3.5-1.5-5.8-2.6-6.7-3.4c-0.8-0.7-1.2-1.6-1.2-2.5&#10;&#9;&#9;c0-1.2,0.6-2.2,1.8-3.1c1.2-0.9,2.8-1.3,4.7-1.3c1.8,0,3.4,0.5,4.7,1.3c1.2,0.8,2.4,2,3,3.8c0,0.2,0.2,0.3,0.4,0.3&#10;&#9;&#9;c0.2,0,0.4-0.1,0.4-0.3v0l0.4-4.8c-1-0.6-2.4-1.2-3.4-1.5c-1.3-0.3-2.9-0.5-4.7-0.5c-3.2,0-5.8,0.7-7.8,2.1&#10;&#9;&#9;c-1.9,1.4-2.9,3.1-2.9,5.2c0,1.1,0.3,2.1,0.8,3c0.7,1.1,1.8,2.1,3.3,3.1c0.9,0.6,2.8,1.5,5.8,2.8c3,1.3,5,2.5,5.9,3.4&#10;&#9;&#9;c1,0.9,1.4,2,1.4,3.1c0,0.8-0.3,1.7-1,2.5c-0.6,0.9-1.5,1.5-2.6,2c-1.1,0.5-2.4,0.7-3.7,0.7c-2.2,0-4.2-0.7-5.9-2.1&#10;&#9;&#9;c-1.7-1.4-2.8-2.6-3.1-4.3c0-0.1,0-0.2,0-0.3c0-0.3-0.2-0.5-0.6-0.5c-0.3,0-0.6,0.2-0.6,0.5c0,0.2-0.5,5.7-0.5,5.7&#10;&#9;&#9;c0,0.3,0.1,0.5,0.4,0.7c0.3,0.2,1.1,0.6,2.4,0.9c2.2,0.6,4.4,0.9,6.8,0.9c2.7,0,4.9-0.4,6.6-1c1.7-0.7,3-1.7,4-3.1&#10;&#9;&#9;c1-1.4,1.4-2.8,1.4-4.4C251.4,410.9,251.1,409.8,250.5,408.8" class="st0"/>
	<path d="M326.3,403.8c3.4-1.1,5.8-3.3,5.8-5.8c0-3.7-5.1-6.6-11.3-6.6h-0.1c-2,0-4.7,0-5.7,0c-2.6,0.1-4.3,0.2-6.4,0.4&#10;&#9;&#9;l-1.8,0.1h0c-0.3,0-0.6,0.2-0.6,0.4c0,0.3,0.2,0.5,0.5,0.6l3.1,0.6c0.9,0.2,0.9,0.7,0.8,1.5v22.5v0c0,0.7-0.6,1.4-1.5,1.5h0&#10;&#9;&#9;l-2.4,0.6c-0.3,0-0.6,0.3-0.5,0.5c0,0.3,0.3,0.5,0.6,0.4h0h15.5h0c7.1,0,12.9-3.8,12.9-8.6C335.2,408.1,331.4,404.9,326.3,403.8&#10;&#9;&#9; M319.6,392.8c1.9,0,3.5,0.3,4.8,0.9c0.2,0.1,5.3,2.4,2,7.3c-0.1,0.1-1.9,3-8.1,3c-1,0-2.2-0.1-3.3-0.2l0-10.5&#10;&#9;&#9;C315.7,393.1,317.5,392.8,319.6,392.8 M329,416.1c0,0-2,2.7-7.6,2.8c0,0-0.2,0-0.4,0c-1.3,0-5.6-0.2-5.9-3.1v-10.1&#10;&#9;&#9;c0.6-0.1,2.5-0.3,4.6-0.3c3.1,0,5.6,0.4,7.4,1.3c0,0,1.6,0.9,2.6,2.5C331.1,411.4,330.9,413.7,329,416.1" class="st0"/>
	<path d="M381.7,419.4L381.7,419.4l-2.4-0.6c-0.9-0.1-1.5-0.7-1.5-1.5v0v-22.8c0-0.7,0.6-1.4,1.5-1.5l2.4-0.6&#10;&#9;&#9;c0.3,0,0.6-0.3,0.5-0.6c0-0.3-0.3-0.5-0.7-0.5h0h-3.8h-4.5h-3.8h0c-0.3,0-0.7,0.2-0.7,0.5c0,0.3,0.2,0.5,0.5,0.5v0l2.4,0.6&#10;&#9;&#9;c0.9,0.1,1.5,0.7,1.5,1.5h0l0,10.6h-18.7v-10.7c0-0.7,0.6-1.2,1.5-1.3l2.4-0.6c0.3,0,0.6-0.3,0.5-0.6c0-0.3-0.3-0.5-0.7-0.5h0&#10;&#9;&#9;l-3.7,0v0H350h-3.8c-0.3,0-0.6,0.2-0.7,0.5c0,0.3,0.2,0.5,0.5,0.5l0,0l2.4,0.6c0.8,0.1,1.3,0.6,1.5,1.2v23.4&#10;&#9;&#9;c-0.1,0.6-0.7,1.1-1.5,1.2l-2.4,0.6h0c-0.3,0-0.6,0.3-0.5,0.5c0.1,0.3,0.3,0.5,0.7,0.5h3.8h4.5h3.7h0c0.3,0,0.6-0.2,0.7-0.5&#10;&#9;&#9;c0-0.3-0.2-0.5-0.5-0.5l-2.4-0.6c-0.8-0.1-1.4-0.6-1.5-1.3v-10.7h18.7l0,10.6l0,0c0,0.7-0.6,1.4-1.5,1.5l-2.4,0.6&#10;&#9;&#9;c-0.3,0-0.6,0.3-0.5,0.5c0,0.3,0.3,0.5,0.7,0.5h0h3.8h4.5h3.8h0c0.3,0,0.7-0.2,0.7-0.5C382.3,419.7,382,419.4,381.7,419.4" class="st0"/>
	<path d="M422.8,419.4L422.8,419.4l-1.8-0.5h0c-0.9-0.2-1.6-0.7-1.9-1.4l0,0l-12-26.1H406l-12,26.1l0,0&#10;&#9;&#9;c-0.3,0.7-1,1.2-1.9,1.4h0l-1.8,0.5c-0.3,0-0.6,0.3-0.5,0.6c0,0.3,0.3,0.5,0.7,0.4h8.9h0c0.3,0,0.6-0.2,0.7-0.4&#10;&#9;&#9;c0-0.3-0.2-0.5-0.5-0.6l-2.2-0.5c-0.4-0.1-0.8-0.3-1-0.6c-0.2-0.3-0.2-0.6,0-1v0l3.9-8.5h10.8l3.7,8.1h0c0.5,1-0.3,1.8-1.1,1.9&#10;&#9;&#9;l-2.5,0.6c-0.3,0-0.6,0.3-0.5,0.6c0,0.3,0.4,0.5,0.7,0.4h0h11.2c0.3,0,0.6-0.2,0.7-0.4C423.4,419.7,423.2,419.4,422.8,419.4&#10;&#9;&#9; M401.2,407.1l4.6-10.1l4.6,10.1H401.2z" class="st0"/>
	<path d="M296.8,405.6c0-1.7-0.3-3.4-1-5.1c-0.5-1.2-1.2-2.4-2.2-3.5c-1.4-1.6-2.8-2.7-4.1-3.5&#10;&#9;&#9;c-1.4-0.8-2.9-1.3-4.6-1.8c-1.7-0.4-3.4-0.6-5.2-0.6c-0.2,0-0.4,0-0.7,0c-0.2,0-0.5,0-0.7,0c-1.7,0-3.5,0.2-5.2,0.6&#10;&#9;&#9;c-1.7,0.4-3.2,1-4.6,1.8c-1.4,0.7-2.7,1.9-4.1,3.5c-1,1.1-1.7,2.2-2.2,3.5c-0.6,1.6-0.9,3.3-0.9,5.1v0.3v0.4c0,1.7,0.3,3.4,0.9,5.1&#10;&#9;&#9;c0.5,1.3,1.2,2.4,2.2,3.5c1.4,1.6,2.7,2.7,4.1,3.5c1.4,0.8,2.9,1.3,4.6,1.8c1.7,0.4,3.4,0.6,5.2,0.6c0.2,0,0.5,0,0.7,0&#10;&#9;&#9;c0.2,0,0.5,0,0.7,0c1.8,0,3.5-0.2,5.2-0.6c1.7-0.4,3.2-1,4.6-1.8c1.4-0.7,2.8-1.9,4.1-3.5c1-1.1,1.7-2.2,2.2-3.5&#10;&#9;&#9;c0.6-1.6,1-3.3,1-5.1v-0.4V405.6z M292.2,406c0,2-0.3,3.9-1,5.8c-0.5,1.5-1.4,2.8-2.6,3.9c-1.2,1.2-2.6,2-4.2,2.7&#10;&#9;&#9;c-1.7,0.6-3.4,1-5.3,1h0h0c-1.9,0-3.6-0.3-5.3-1c-1.7-0.6-3.1-1.5-4.3-2.7c-1.2-1.2-2-2.5-2.5-3.9c-0.7-1.9-1-3.9-1-5.8v-0.1v0&#10;&#9;&#9;c0-2,0.3-3.9,1-5.9c0.5-1.5,1.4-2.8,2.5-3.9c1.2-1.2,2.6-2,4.3-2.7c1.7-0.6,3.4-0.9,5.3-0.9h0h0c1.9,0,3.6,0.3,5.3,0.9&#10;&#9;&#9;c1.7,0.6,3.1,1.5,4.2,2.7c1.2,1.2,2,2.5,2.6,3.9c0.7,1.9,1,3.9,1,5.9V406L292.2,406z" class="st0"/>
</g>
</svg>