<?xml version="1.0" encoding="utf-8"?>
<!-- Generator: Adobe Illustrator 27.5.0, SVG Export Plug-In . SVG Version: 6.00 Build 0)  -->
<svg version="1.1" id="Layer_1" xmlns="http://www.w3.org/2000/svg" xmlns:xlink="http://www.w3.org/1999/xlink" x="0px" y="0px"
	 viewBox="0 0 1420 800" style="enable-background:new 0 0 1420 800;" xml:space="preserve">
<g>
	<defs>
		<rect id="SVGID_1_" width="1420" height="800"/>
	</defs>
	<clipPath id="SVGID_00000153670172013228279510000012115021484301188796_">
		<use xlink:href="#SVGID_1_"  style="overflow:visible;"/>
	</clipPath>
	<g style="clip-path:url(#SVGID_00000153670172013228279510000012115021484301188796_);">
		
			<rect x="-46.826" y="28.5" transform="matrix(0.7071 -0.7071 0.7071 0.7071 -19.163 13.7365)" style="fill:#E2E2E2;" width="107.651" height="3"/>
		
			<rect x="693.174" y="28.5" transform="matrix(0.7071 -0.7071 0.7071 0.7071 197.578 536.9955)" style="fill:#E2E2E2;" width="107.651" height="3"/>
		
			<rect x="1337.5" y="-23.826" transform="matrix(0.7071 -0.7071 0.7071 0.7071 370.9708 955.6028)" style="fill:#E2E2E2;" width="3" height="107.651"/>
		<polygon style="fill:#E2E2E2;" points="115.879,67 118,69.121 189.879,141 115.879,215 118,217.121 192,143.121 194.121,141 
			192,138.879 120.121,67 192,-4.879 263.879,67 266,69.121 268.121,67 342.121,-7 340,-9.121 266,64.879 194.121,-7 192,-9.121 
			189.879,-7 118,64.879 		"/>
		<path style="fill:#E2E2E2;" d="M636,69.121L707.879,141l2.121,2.121L781.879,215L710,286.879L707.879,289L636,360.879L633.879,363
			l2.121,2.121L707.879,437l2.121,2.121l2.121-2.121L784,365.121L855.879,437l2.121,2.121l74,74l2.121-2.121l-74-74L858,434.879
			L786.121,363L858,291.121l2.121-2.121L932,217.121L1003.879,289l2.121,2.121l2.121-2.121l74-74l-2.121-2.121l-74,74L934.121,215
			L1006,143.121l2.121-2.121L1080,69.121l2.121-2.121L1154-4.879l74,74l2.121-2.121l-74-74L1154-9.121L1151.879-7L1080,64.879
			l-74-74L1003.879-7l74,74L1006,138.879l-74-74L929.879,67l74,74L932,212.879L929.879,215L858,286.879L786.121,215L858,143.121
			l2.121-2.121L858,138.879L786.121,67l74-74L858-9.121l-74,74L781.879,67L710,138.879L638.121,67l74-74L710-9.121l-74,74l-74-74
			L559.879-7l74,74L636,69.121z M855.879,289L784,360.879L781.879,363L710,434.879L638.121,363L710,291.121l2.121-2.121L784,217.121
			L855.879,289z M784,69.121L855.879,141L784,212.879L712.121,141L784,69.121z"/>
		<polygon style="fill:#E2E2E2;" points="855.879,67 858,69.121 929.879,141 855.879,215 858,217.121 932,143.121 934.121,141 
			932,138.879 860.121,67 932,-4.879 1006,69.121 1008.121,67 934.121,-7 932,-9.121 929.879,-7 858,64.879 		"/>
		<path style="fill:#E2E2E2;" d="M1450,69.121l2.121-2.121L1450,64.879l-74-74L1373.879-7l74,74L1376,138.879L1304.121,67
			L1302,64.879l-74-74L1225.879-7l74,74L1228,138.879L1156.121,67L1154,64.879L1151.879,67L1080,138.879l-2.121,2.121l-74,74
			l2.121,2.121l74-74L1151.879,215L1080,286.879l-2.121,2.121L1006,360.879L934.121,289L932,286.879L929.879,289L858,360.879
			L855.879,363l2.121,2.121L929.879,437l2.121,2.121L1003.879,511L932,582.879L860.121,511L858,508.879L786.121,437L784,434.879
			L781.879,437L710,508.879L638.121,437L636,434.879L564.121,363L636,291.121l2.121-2.121L710,217.121l2.121-2.121L710,212.879
			L638.121,141L636,138.879L564.121,67L562,64.879l-74-74L485.879-7l74,74L488,138.879L416.121,67L414,64.879L411.879,67
			L340,138.879L337.879,141l2.121,2.121L411.879,215L340,286.879L337.879,289l2.121,2.121L411.879,363L340,434.879L337.879,437
			L266,508.879L263.879,511l-74,74l2.121,2.121l74-74l2.121-2.121L340,439.121l2.121-2.121L414,365.121l2.121-2.121L414,360.879
			L342.121,289L414,217.121L485.879,289l2.121,2.121L559.879,363l2.121,2.121L633.879,437L562,508.879L559.879,511l2.121,2.121
			L633.879,585L562,656.879l-74-74L485.879,585l74,74l2.121,2.121L633.879,733L562,804.879L490.121,733L488,730.879l-74-74
			L411.879,659l74,74l-74,74l2.121,2.121l74-74L559.879,807l2.121,2.121l2.121-2.121L636,735.121l2.121-2.121L710,661.121
			L781.879,733l-74,74l2.121,2.121l74-74L855.879,807l2.121,2.121l2.121-2.121L932,735.121l2.121-2.121L1006,661.121l2.121-2.121
			L1080,587.121L1151.879,659l2.121,2.121l2.121-2.121l74-74l-2.121-2.121l-74,74L1082.121,585l-2.121-2.121l-2.121,2.121
			L1006,656.879L934.121,585L1006,513.121l2.121-2.121l-2.121-2.121L934.121,437L932,434.879L860.121,363L932,291.121L1003.879,363
			l2.121,2.121l74,74l2.121-2.121l-74-74L1080,291.121l74,74l2.121-2.121l-74-74L1154,217.121l2.121-2.121l-2.121-2.121
			L1082.121,141L1154,69.121L1225.879,141l2.121,2.121L1299.879,215L1228,286.879l-2.121,2.121l2.121,2.121L1299.879,363
			l2.121,2.121L1373.879,437l-74,74l2.121,2.121l74-74l74,74l2.121-2.121l-74-74L1450,365.121l2.121-2.121l-2.121-2.121
			L1378.121,289l-2.121-2.121l-2.121,2.121L1302,360.879L1230.121,289L1302,217.121l2.121-2.121L1376,143.121l74,74l2.121-2.121
			l-74-74L1450,69.121z M707.879,215L636,286.879L564.121,215L636,143.121L707.879,215z M416.121,215L414,212.879L342.121,141
			L414,69.121L485.879,141l2.121,2.121l2.121-2.121L562,69.121L633.879,141L562,212.879L559.879,215L488,286.879L416.121,215z
			 M490.121,289L562,217.121L633.879,289L562,360.879L490.121,289z M929.879,585L858,656.879L786.121,585L858,513.121L929.879,585z
			 M784,439.121L855.879,511L784,582.879L712.121,511L784,439.121z M781.879,585L710,656.879L638.121,585L710,513.121L781.879,585z
			 M564.121,511L636,439.121L707.879,511L636,582.879L564.121,511z M636,730.879L564.121,659L636,587.121L707.879,659L636,730.879z
			 M712.121,659L784,587.121L855.879,659L784,730.879L712.121,659z M1003.879,659L932,730.879L929.879,733L858,804.879L786.121,733
			L858,661.121l2.121-2.121L932,587.121L1003.879,659z M1376,291.121L1447.879,363L1376,434.879L1304.121,363L1376,291.121z
			 M1302,212.879L1230.121,141L1302,69.121L1373.879,141L1302,212.879z"/>
		<polygon style="fill:#E2E2E2;" points="562,138.879 488,212.879 414,138.879 411.879,141 485.879,215 488,217.121 490.121,215 
			564.121,141 		"/>
		<polygon style="fill:#E2E2E2;" points="1376,212.879 1373.879,215 1299.879,289 1302,291.121 1376,217.121 1450,291.121 
			1452.121,289 1378.121,215 		"/>
		
			<rect x="693.174" y="324.5" transform="matrix(0.7071 -0.7071 0.7071 0.7071 -11.7256 623.692)" style="fill:#E2E2E2;" width="107.651" height="3"/>
		<path style="fill:#E2E2E2;" d="M-32.121,511l2.121,2.121L41.879,585L44,587.121L46.121,585L118,513.121l2.121-2.121L192,439.121
			l2.121-2.121L266,365.121l2.121-2.121L266,360.879L194.121,289l74-74L266,212.879l-74,74L189.879,289l2.121,2.121L263.879,363
			L192,434.879L120.121,363L118,360.879L115.879,363L44,434.879l-74-74L-32.121,363l74,74L-30,508.879L-32.121,511z M118,365.121
			L189.879,437L118,508.879L46.121,437L118,365.121z M44,439.121L115.879,511L44,582.879L-27.879,511L44,439.121z"/>
		<polygon style="fill:#E2E2E2;" points="414,513.121 416.121,511 490.121,437 488,434.879 414,508.879 411.879,511 337.879,585 
			340,587.121 		"/>
		<path style="fill:#E2E2E2;" d="M1452.121,585l-2.121-2.121L1378.121,511l-2.121-2.121l-2.121,2.121L1302,582.879L1230.121,511
			L1302,439.121l2.121-2.121l-2.121-2.121L1230.121,363l-2.121-2.121L1156.121,289L1228,217.121l2.121-2.121l-2.121-2.121l-74-74
			l-2.121,2.121l74,74L1154,286.879l-2.121,2.121l2.121,2.121L1225.879,363L1154,434.879l-74-74l-2.121,2.121l74,74L1080,508.879
			L1008.121,437l-2.121-2.121l-74-74L929.879,363l74,74l2.121,2.121L1077.879,511l-74,74l2.121,2.121l74-74L1151.879,585
			l2.121,2.121l2.121-2.121L1228,513.121L1299.879,585L1228,656.879l-2.121,2.121L1154,730.879L1082.121,659l-2.121-2.121
			l-2.121,2.121L1006,730.879l-2.121,2.121l-74,74l2.121,2.121l74-74l2.121-2.121L1080,661.121L1151.879,733l-74,74l2.121,2.121
			l74-74l74,74l2.121-2.121l-74-74L1228,661.121l74,74l2.121-2.121l-74-74L1302,587.121L1373.879,659l2.121,2.121L1447.879,733
			l-74,74l2.121,2.121l74-74l2.121-2.121l-2.121-2.121L1378.121,659L1450,587.121L1452.121,585z M1228,365.121L1299.879,437
			L1228,508.879L1156.121,437L1228,365.121z M1154,582.879L1082.121,511L1154,439.121L1225.879,511L1154,582.879z M1376,656.879
			L1304.121,585L1376,513.121L1447.879,585L1376,656.879z"/>
		<polygon style="fill:#E2E2E2;" points="118,661.121 192,735.121 194.121,733 120.121,659 118,656.879 115.879,659 44,730.879 
			41.879,733 44,735.121 118,809.121 120.121,807 46.121,733 		"/>
		
			<rect x="841.174" y="694.5" transform="matrix(0.7071 -0.7071 0.7071 0.7071 -230.0069 836.7142)" style="fill:#E2E2E2;" width="107.651" height="3"/>
		<path style="fill:#E2E2E2;" d="M416.121,733L414,730.879L342.121,659L414,587.121L485.879,659l2.121,2.121l74,74l2.121-2.121
			l-74-74L488,656.879L416.121,585L488,513.121l74,74l2.121-2.121l-74-74L562,439.121l2.121-2.121L562,434.879L490.121,363
			L488,360.879l-74-74L411.879,289l74,74L414,434.879L411.879,437L340,508.879L337.879,511L266,582.879L263.879,585L192,656.879
			L120.121,585L192,513.121l2.121-2.121L266,439.121l2.121-2.121L340,365.121l2.121-2.121L340,360.879L268.121,289L340,217.121
			l2.121-2.121L340,212.879L268.121,141L340,69.121L342.121,67L414-4.879l74,74L490.121,67l-74-74L414-9.121L411.879-7L340,64.879
			L337.879,67L266,138.879l-74-74L189.879,67l74,74L192,212.879L189.879,215L118,286.879L46.121,215L118,143.121l2.121-2.121
			L118,138.879L46.121,67l74-74L118-9.121l-74,74L41.879,67L-30,138.879L-32.121,141l2.121,2.121L41.879,215L-30,286.879
			L-32.121,289l2.121,2.121L41.879,363L44,365.121L46.121,363L118,291.121l74,74l2.121-2.121l-74-74L192,217.121l2.121-2.121
			L266,143.121L337.879,215L266,286.879L263.879,289l2.121,2.121L337.879,363L266,434.879L263.879,437L192,508.879L189.879,511
			L118,582.879L115.879,585L44,656.879l-74-74L-32.121,585l74,74L-30,730.879L-32.121,733l2.121,2.121l74,74L46.121,807l-74-74
			L44,661.121L46.121,659L118,587.121L189.879,659l2.121,2.121L263.879,733L192,804.879l-74-74L115.879,733l74,74l2.121,2.121
			l2.121-2.121L266,735.121L337.879,807l2.121,2.121l2.121-2.121L414,735.121L416.121,733z M-27.879,141L44,69.121L115.879,141
			L44,212.879L-27.879,141z M44,360.879L-27.879,289L44,217.121L115.879,289L44,360.879z M340,513.121l2.121-2.121L414,439.121
			l2.121-2.121L488,365.121L559.879,437L488,508.879L485.879,511L414,582.879L411.879,585L340,656.879L268.121,585L340,513.121z
			 M194.121,659L266,587.121L337.879,659L266,730.879L194.121,659z M340,804.879L268.121,733L340,661.121L411.879,733L340,804.879z"
			/>
		
			<rect x="619.174" y="768.5" transform="matrix(0.7071 -0.7071 0.7071 0.7071 -347.3551 701.4106)" style="fill:#E2E2E2;" width="107.651" height="3"/>
		
			<rect x="989.174" y="768.5" transform="matrix(0.7071 -0.7071 0.7071 0.7071 -238.9846 963.0402)" style="fill:#E2E2E2;" width="107.651" height="3"/>
		<polygon style="fill:#E2E2E2;" points="1378.121,733 1376,730.879 1302,656.879 1299.879,659 1373.879,733 1302,804.879 
			1228,730.879 1225.879,733 1299.879,807 1302,809.121 1304.121,807 1376,735.121 		"/>
	</g>
</g>
</svg>
