<svg xml:space="preserve" style="max-height: 500px" viewBox="359.1124597701149 150.542296 123.76671264367816 225.386704" y="0px" x="0px" xmlns:xlink="http://www.w3.org/1999/xlink" xmlns="http://www.w3.org/2000/svg" version="1.1" width="123.76671264367816" height="225.386704">

<g id="graphics">
	<g>
		<g>
			<path d="M346.75,394.522v27.549h-7.62v-27.549h-9.671v-6.594h26.962v6.594H346.75z" style="fill:#6F7070; transform:translate(175px,-130px)"/>
			<path d="M389.781,417.357c-3.451,3.371-7.701,5.056-12.748,5.056c-5.048,0-9.298-1.685-12.749-5.056&#10;&#9;&#9;&#9;&#9;c-3.451-3.37-5.177-7.563-5.177-12.577c0-5.015,1.726-9.207,5.177-12.578c3.451-3.37,7.701-5.055,12.749-5.055&#10;&#9;&#9;&#9;&#9;c5.047,0,9.297,1.685,12.748,5.055c3.451,3.371,5.178,7.564,5.178,12.578C394.959,409.794,393.232,413.986,389.781,417.357z&#10;&#9;&#9;&#9;&#9; M387.192,404.804c0-3.045-0.977-5.642-2.931-7.791c-1.953-2.149-4.355-3.224-7.204-3.224c-2.85,0-5.251,1.074-7.205,3.224&#10;&#9;&#9;&#9;&#9;c-1.953,2.149-2.931,4.746-2.931,7.791c0,3.045,0.977,5.634,2.931,7.767c1.954,2.133,4.356,3.199,7.205,3.199&#10;&#9;&#9;&#9;&#9;c2.849,0,5.251-1.066,7.204-3.199C386.216,410.438,387.192,407.849,387.192,404.804z" style="fill:#6F7070; transform:translate(175px,-130px)"/>
			<path d="M411.518,407.564l6.057-19.636h7.962l6.008,19.636l6.789-19.636h8.255L434.67,422.07h-5.666&#10;&#9;&#9;&#9;&#9;l-7.473-23.738l-7.425,23.738h-5.666l-11.918-34.143h8.255L411.518,407.564z" style="fill:#6F7070; transform:translate(175px,-130px)"/>
			<path d="M475.26,387.928v6.789h-16.998v7.034h15.289v6.496h-15.289v7.083h17.535v6.74h-25.155v-34.143&#10;&#9;&#9;&#9;&#9;H475.26z" style="fill:#6F7070; transform:translate(175px,-130px)"/>
			<path d="M510.281,399.26c0,5.471-2.166,9.004-6.496,10.6l8.645,12.211h-9.378l-7.571-10.893h-5.275v10.893&#10;&#9;&#9;&#9;&#9;h-7.62v-34.143h12.944c5.308,0,9.093,0.896,11.356,2.686C509.149,392.405,510.281,395.287,510.281,399.26z M501.099,403.314&#10;&#9;&#9;&#9;&#9;c0.944-0.846,1.417-2.189,1.417-4.029c0-1.839-0.489-3.102-1.466-3.785c-0.977-0.685-2.686-1.026-5.129-1.026h-5.715v10.111&#10;&#9;&#9;&#9;&#9;h5.568C498.379,404.584,500.153,404.161,501.099,403.314z" style="fill:#6F7070; transform:translate(175px,-130px)"/>
		</g>
	</g>
	<g>
		<g>
			<path d="M357.486,438.4c0.93-2.046,2.657-3.161,5.021-3.189v2.099c-2.949-0.053-4.782,1.78-5.021,4.543&#10;&#9;&#9;&#9;&#9;v7.439h-2.072v-14h2.072V438.4z" style="fill:#939C9E;transform:translate(175px,-130px)"/>
			<path d="M377.357,443.102h-11.423c0.372,2.736,2.365,4.463,5.074,4.463c1.727,0,3.241-0.611,4.33-1.754&#10;&#9;&#9;&#9;&#9;l1.143,1.223c-1.329,1.487-3.294,2.338-5.632,2.338c-4.117,0-6.96-2.896-6.96-7.066c0-4.171,2.869-7.066,6.934-7.066&#10;&#9;&#9;&#9;&#9;C375.338,435.211,377.57,438.346,377.357,443.102z M375.498,441.401c-0.133-2.684-1.939-4.384-4.676-4.384&#10;&#9;&#9;&#9;&#9;c-2.657,0-4.569,1.727-4.888,4.384H375.498z" style="fill:#939C9E;transform:translate(175px,-130px)"/>
			<path d="M389.603,447.14c-1.116,1.514-2.895,2.258-5.127,2.258c-2.896,0-4.755-1.859-4.755-4.277&#10;&#9;&#9;&#9;&#9;c0-2.444,1.939-3.984,5.233-4.012h4.596v-0.823c0-2.046-1.275-3.268-3.746-3.268c-1.54,0-2.975,0.585-4.436,1.594l-0.876-1.514&#10;&#9;&#9;&#9;&#9;c1.807-1.195,3.321-1.887,5.711-1.887c3.454,0,5.366,1.833,5.393,4.835l0.026,9.245h-2.019V447.14z M389.577,444.456v-1.674&#10;&#9;&#9;&#9;&#9;h-4.357c-2.337,0-3.56,0.718-3.56,2.258c0,1.541,1.249,2.551,3.214,2.551C387.239,447.591,389.046,446.396,389.577,444.456z" style="fill:#939C9E;transform:translate(175px,-130px)"/>
			<path d="M396.378,449.291v-19.712h2.072v19.712H396.378z" style="fill:#939C9E;transform:translate(175px,-130px)"/>
			<path d="M422.97,443.102h-11.424c0.372,2.736,2.364,4.463,5.074,4.463c1.727,0,3.241-0.611,4.33-1.754&#10;&#9;&#9;&#9;&#9;l1.143,1.223c-1.328,1.487-3.295,2.338-5.632,2.338c-4.118,0-6.96-2.896-6.96-7.066c0-4.171,2.869-7.066,6.934-7.066&#10;&#9;&#9;&#9;&#9;C420.95,435.211,423.182,438.346,422.97,443.102z M421.109,441.401c-0.133-2.684-1.939-4.384-4.675-4.384&#10;&#9;&#9;&#9;&#9;c-2.657,0-4.569,1.727-4.888,4.384H421.109z" style="fill:#939C9E;transform:translate(175px,-130px)"/>
			<path d="M434.712,436.486l-0.797,1.647c-1.09-0.691-2.497-1.142-3.799-1.142&#10;&#9;&#9;&#9;&#9;c-1.567,0-2.763,0.558-2.763,1.859c0,3.108,7.81,1.515,7.81,6.535c0,2.763-2.443,3.985-5.127,3.985&#10;&#9;&#9;&#9;&#9;c-1.992,0-4.038-0.691-5.366-1.966l0.797-1.567c1.195,1.115,3.002,1.779,4.649,1.779c1.647,0,2.975-0.61,3.002-1.992&#10;&#9;&#9;&#9;&#9;c0.079-3.374-7.758-1.647-7.73-6.615c0-2.683,2.31-3.799,4.861-3.799C431.923,435.211,433.543,435.69,434.712,436.486z" style="fill:#939C9E;transform:translate(175px,-130px)"/>
			<path d="M445.789,448.335c-0.983,0.664-2.046,1.036-3.162,1.063c-2.045,0-3.56-1.223-3.56-3.985v-7.996&#10;&#9;&#9;&#9;&#9;h-2.019v-1.674h2.019v-3.692h2.046v3.692l4.436-0.026v1.7h-4.436v7.624c0,1.701,0.664,2.338,1.859,2.338&#10;&#9;&#9;&#9;&#9;c0.717,0,1.461-0.238,2.231-0.717L445.789,448.335z" style="fill:#939C9E;transform:translate(175px,-130px)"/>
			<path d="M457.61,447.14c-1.116,1.514-2.896,2.258-5.127,2.258c-2.897,0-4.756-1.859-4.756-4.277&#10;&#9;&#9;&#9;&#9;c0-2.444,1.94-3.984,5.233-4.012h4.596v-0.823c0-2.046-1.274-3.268-3.745-3.268c-1.541,0-2.976,0.585-4.436,1.594l-0.877-1.514&#10;&#9;&#9;&#9;&#9;c1.807-1.195,3.32-1.887,5.712-1.887c3.453,0,5.366,1.833,5.392,4.835l0.026,9.245h-2.018V447.14z M457.584,444.456v-1.674&#10;&#9;&#9;&#9;&#9;h-4.357c-2.338,0-3.56,0.718-3.56,2.258c0,1.541,1.249,2.551,3.215,2.551C455.246,447.591,457.052,446.396,457.584,444.456z" style="fill:#939C9E;transform:translate(175px,-130px)"/>
			<path d="M471.477,448.335c-0.983,0.664-2.046,1.036-3.162,1.063c-2.045,0-3.56-1.223-3.56-3.985v-7.996&#10;&#9;&#9;&#9;&#9;h-2.019v-1.674h2.019v-3.692h2.046v3.692l4.436-0.026v1.7h-4.436v7.624c0,1.701,0.664,2.338,1.859,2.338&#10;&#9;&#9;&#9;&#9;c0.718,0,1.461-0.238,2.231-0.717L471.477,448.335z" style="fill:#939C9E;transform:translate(175px,-130px)"/>
			<path d="M486.461,443.102h-11.424c0.372,2.736,2.364,4.463,5.074,4.463c1.727,0,3.241-0.611,4.33-1.754&#10;&#9;&#9;&#9;&#9;l1.143,1.223c-1.328,1.487-3.294,2.338-5.632,2.338c-4.118,0-6.96-2.896-6.96-7.066c0-4.171,2.868-7.066,6.934-7.066&#10;&#9;&#9;&#9;&#9;C484.441,435.211,486.673,438.346,486.461,443.102z M484.601,441.401c-0.133-2.684-1.939-4.384-4.675-4.384&#10;&#9;&#9;&#9;&#9;c-2.657,0-4.569,1.727-4.889,4.384H484.601z" style="fill:#939C9E;transform:translate(175px,-130px)"/>
		</g>
	</g>
	<path d="M460.146,314.576v-97.902l-17.334,6.45v-42.177l-43.736-24.134v73.114l9.069-3.375v-53.664&#10;&#9;&#9;l25.599,14.362v39.249l-8.265,3.075v-36.937l-9.07-5.189v45.501l-34.667,12.899v39.555l-17.333-6.449v91.177h61.07v-49.105&#10;&#9;&#9;l-9.07-3.375v42.808h-42.93v-68.454l25.597,9.525v39.586h-8.264v-32.989l-9.07-3.376v46.037h26.403v-45.884l60.265,22.425v33.13&#10;&#9;&#9;h-25.598v-23.311l8.264,3.074v10.566h9.07v-16.863l-26.402-9.824v9.672v36.358h43.736v-49.105L460.146,314.576z M451.076,311.2&#10;&#9;&#9;l-25.597-9.524v-43.082l8.265-3.075v39.8l9.068,3.376v-56.222l-26.403,9.824v46.003l-25.597-9.523V252.15l8.264-3.075v33.346&#10;&#9;&#9;l9.069,3.374v-40.094l42.931-15.975V311.2z" style="fill:#9E8F70;"/>
</g>
</svg>